/* XPM */
static char * enemy_xpm[] = {
"32 32 118 2",
"  	c #96BC20",
". 	c #90B41F",
"+ 	c #A5C92E",
"@ 	c #88AB1D",
"# 	c #A0C52D",
"$ 	c #96BD20",
"% 	c #A7CB2F",
"& 	c #92B720",
"* 	c #9EC624",
"= 	c #98BE21",
"- 	c #97BE21",
"; 	c #94B921",
"> 	c #99C022",
", 	c #A1C825",
"' 	c #97BD21",
") 	c #91B620",
"! 	c #9CC323",
"~ 	c #9FC624",
"{ 	c #B1DB34",
"] 	c #A2CA25",
"^ 	c #98BF21",
"/ 	c #A7D028",
"( 	c #93B723",
"_ 	c #9CC325",
": 	c #97BC25",
"< 	c #9BC222",
"[ 	c #555836",
"} 	c #A4CC29",
"| 	c #97BD20",
"1 	c #91B520",
"2 	c #96BB24",
"3 	c #9FC724",
"4 	c #A7CC2F",
"5 	c #9AC122",
"6 	c #AED432",
"7 	c #ADD633",
"8 	c #ABD429",
"9 	c #A6CF27",
"0 	c #A1C928",
"a 	c #A1C925",
"b 	c #A9D229",
"c 	c #A5CE27",
"d 	c #9DC426",
"e 	c #959963",
"f 	c #BABE95",
"g 	c #9FC627",
"h 	c #8CB01F",
"i 	c #98BD23",
"j 	c #A4CC26",
"k 	c #9EC627",
"l 	c #A5CC2F",
"m 	c #ABD130",
"n 	c #AAD429",
"o 	c #B6DE35",
"p 	c #A2CA26",
"q 	c #B0D732",
"r 	c #B8E136",
"s 	c #A9D228",
"t 	c #E4E6D1",
"u 	c #92B622",
"v 	c #9DC423",
"w 	c #99BE26",
"x 	c #ACD432",
"y 	c #ABD52A",
"z 	c #ACD62A",
"A 	c #A5CD2A",
"B 	c #9DC328",
"C 	c #A8D128",
"D 	c #B1DA34",
"E 	c #9FC727",
"F 	c #A0C824",
"G 	c #A9D329",
"H 	c #A2CA28",
"I 	c #9FC529",
"J 	c #A4CD2A",
"K 	c #ABD529",
"L 	c #A4CD29",
"M 	c #FFFFFF",
"N 	c #A8D228",
"O 	c #AAD329",
"P 	c #A5CE2A",
"Q 	c #979799",
"R 	c #B3DD35",
"S 	c #B9E236",
"T 	c #B7E035",
"U 	c #A3CC29",
"V 	c #ACD52A",
"W 	c #B7B7BB",
"X 	c #CDCDBB",
"Y 	c #B1ABAD",
"Z 	c #E5E3E3",
"` 	c #A9AA86",
" .	c #736A64",
"..	c #2E1E22",
"+.	c #7D7375",
"@.	c #6E6B4B",
"#.	c #D2D2D6",
"$.	c #505133",
"%.	c #635B4D",
"&.	c #86826A",
"*.	c #A09B90",
"=.	c #323234",
"-.	c #545456",
";.	c #767678",
">.	c #534721",
",.	c #6E5E2C",
"'.	c #9EC524",
").	c #9AC022",
"!.	c #A6CE27",
"~.	c #97BD23",
"{.	c #B0D733",
"].	c #A3CB29",
"^.	c #A0C825",
"/.	c #A4CA2F",
"(.	c #A8CD2F",
"_.	c #A3C92E",
":.	c #A5CA2E",
"<.	c #96BB22",
"  .     .     +     . .     .     @   .         #             . ",
"    . .   .     # $ %           .     .   @     . +   +   . .   ",
". . & * = . - ; = > , @ ' .   +     .     ) ! - .       .     . ",
". = ~ { ] ^ ; / ( * _ : < [ [ [ [ [ [ [   ! } * | | 1 | 2 3 4 = ",
"5 6 7 8 9 0 a 9 b c d [ [ e e f f f e e [ [ 9 g 5 h i & j k l m ",
"n o n n / g p q r s [ e f f t t t t t f f e [ o 3 u 0 v w b p x ",
"y z z A B C g 9 D [ e f t t t t t t t t t f e [ E F G p 0 b s H ",
"z I z z I J K L y [ f t t t M M M M M t t t f [ K k N C O L A y ",
"P z P z P z z P [ e f t t M M M M M M M t t f e [ D N O r z z P ",
"z P Q P R S z z [ f f f t M M M M M M M t f f f [ n T U A z z z ",
"P I Q Q z R S z [ f t t t t M M M M M t t t t f [ O n y z P P z ",
"P I Q M Q z R S [ f t M M M t M M M t M M M t f [ J V P I P z z ",
"z P Q M W z P z [ f X Y Y Z M t t t M Z Y Y X f [ I P z z z z z ",
"z P Q M M Q P I [ `  .....+.Z M M M Z +..... .` [ z P z z S z P ",
"z z Q M M Q z I [ @.........Y M M M Y ........@.[ S z z S R z z ",
"P z Q #.M Q z z [ @.........Y M t M Y ........@.[ R S z R z z P ",
"z P Q #.M W z P z $.%.....+.Z e f e Z +.....%.$.z P R z P z I z ",
"z P z Q M M Q z z [ $.&.*.Z M M M M M Z *.&.$.[ z z z z z P z z ",
"z z z Q M M Q P [ e e [ e [ t e t e t [ e [ e e [ z z P =.=.=.I ",
"z S R Q #.M Q [ e M t f [ [ [ [ [ [ [ [ [ f t M e =.=.=.-.;.=.z ",
"S R z Q #.M W [ M e e t M M M e e e M M M t =.=.=.-.Q ;.;.-.=.z ",
"R z z z Q M M =.=.=.[ e e e f M t M f e e e =.;.Q W -.>.,.-.=.z ",
"z P z L Q M M -.Q Q =.f t M M f f f M M t f =.;.,.>.,.>.,.-.=.P ",
"P z n =.-.;.Q Q -.=.P [ e e f e e e f e e [ =.;.,.>.,.-.;.-.=.z ",
"z B =.;.Q Q -.-.=.[ [ f t f [ [ e [ [ f t f =.;.Q W Q ;.-.-.=.z ",
"y b d =.=.=.M t [ J [ e M t e [ f [ e t M e =.;.Q Q ;.>.,.-.=.y ",
"b g '.).5 !.[ [ ~.c {.[ f M f e e e f M f [ =.;.,.>.,.>.,.-.=.].",
"^.'./.| | (.= + | & _.[ t f [ [ [ [ [ f t [ =.;.Q >.,.>.,.-.=.9 ",
"' :..     # +     .   [ f t e [   [ e t f [ = =.-.Q ,.>.-.=.! <.",
"+ #     .   # . . .   [ t M f [   [ f M t [ +   =.-.Q ;.=.  + | ",
"#   .       .     @   [ M M t [ . [ t M M [     @ =.=.=..   #   ",
"      .   . .   .     + [ [ [   .   [ [ [   . .     .     . .   "};
