/* XPM */
static char * player2_xpm[] = {
"32 32 130 2",
"  	c #96BC20",
". 	c #90B41F",
"+ 	c #A5C92E",
"@ 	c #8D7026",
"# 	c #A0C52D",
"$ 	c #96BD20",
"% 	c #DBCD61",
"& 	c #C1A23C",
"* 	c #92B720",
"= 	c #9EC624",
"- 	c #98BE21",
"; 	c #ECE79B",
"> 	c #9FC624",
", 	c #B1DB34",
"' 	c #A2CA25",
") 	c #98BF21",
"! 	c #94B921",
"~ 	c #97BD20",
"{ 	c #91B520",
"] 	c #96BB24",
"^ 	c #9FC724",
"/ 	c #A7CC2F",
"( 	c #9AC122",
"_ 	c #AED432",
": 	c #ADD633",
"< 	c #ABD429",
"[ 	c #A6CF27",
"} 	c #A1C928",
"| 	c #98BD23",
"1 	c #A4CC26",
"2 	c #9EC627",
"3 	c #A5CC2F",
"4 	c #ABD130",
"5 	c #AAD429",
"6 	c #B6DE35",
"7 	c #A7D028",
"8 	c #92B622",
"9 	c #9DC423",
"0 	c #99BE26",
"a 	c #A9D229",
"b 	c #A2CA26",
"c 	c #ACD432",
"d 	c #ABD52A",
"e 	c #ACD62A",
"f 	c #A5CD2A",
"g 	c #A9D329",
"h 	c #A9D228",
"i 	c #A2CA28",
"j 	c #9FC529",
"k 	c #00268F",
"l 	c #A8D128",
"m 	c #AAD329",
"n 	c #A4CD29",
"o 	c #A5CE2A",
"p 	c #0040C5",
"q 	c #B8E136",
"r 	c #0060E1",
"s 	c #A3CC29",
"t 	c #7A6843",
"u 	c #B3DD35",
"v 	c #EEDAB3",
"w 	c #FDF0C5",
"x 	c #534721",
"y 	c #D9D9DD",
"z 	c #2E1E22",
"A 	c #D9D9D9",
"B 	c #B9E236",
"C 	c #928A8C",
"D 	c #F2F2F2",
"E 	c #CA9E73",
"F 	c #DDBD9C",
"G 	c #5C2E00",
"H 	c #FFFFFF",
"I 	c #964F00",
"J 	c #767678",
"K 	c #B7B7BB",
"L 	c #C79D00",
"M 	c #E3B700",
"N 	c #ABD529",
"O 	c #FFD600",
"P 	c #286E9F",
"Q 	c #288DCB",
"R 	c #444444",
"S 	c #979799",
"T 	c #9EC328",
"U 	c #ACD52A",
"V 	c #A4CD2A",
"W 	c #B89D92",
"X 	c #9F8781",
"Y 	c #9DC328",
"Z 	c #9FC429",
"` 	c #A1CA28",
" .	c #858587",
"..	c #8B5E4A",
"+.	c #A77E5D",
"@.	c #A7D128",
"#.	c #9DC426",
"$.	c #9AC027",
"%.	c #A4CD26",
"&.	c #A2CB26",
"*.	c #565657",
"=.	c #1A5586",
"-.	c #B3DB34",
";.	c #AED733",
">.	c #9CC227",
",.	c #9FC627",
"'.	c #9EC524",
").	c #9AC022",
"!.	c #A6CE27",
"~.	c #A0C825",
"{.	c #9BC222",
"].	c #97BD23",
"^.	c #A5CE27",
"/.	c #6D6D6E",
"(.	c #77584A",
"_.	c #AAD231",
":.	c #96BB22",
"<.	c #9CC325",
"[.	c #A3CB26",
"}.	c #A3CB29",
"|.	c #A4CA2F",
"1.	c #A8CD2F",
"2.	c #A3C92E",
"3.	c #FFFC00",
"4.	c #93B720",
"5.	c #97BD21",
"6.	c #A5CA2E",
"7.	c #8AAD1E",
"8.	c #9CC323",
"9.	c #88AB1D",
"  .     .     +   @ @ @ @   .   @ @ @ @         #             . ",
"    . .   .     # $ @ % & @ @ @ & % & @ @ @ @ @ @ +   +   . .   ",
". . * = - . @ @ @ @ @ @ % % & % % & @ ; % % & @ .       .     . ",
". - > , ' ) ! @ & % ; & & % % ; & % ; % & & @ @ @ ~ { ~ ] ^ / - ",
"( _ : < [ } @ @ @ & % ; % % ; % % % % % % % % % & @ | * 1 2 3 4 ",
"5 6 5 5 7 @ & % % % % % % % % % % % % ; % % & @ @ 8 } 9 0 a b c ",
"d e e f @ & % & % ; % % % ; % % % % & % ; % % % & @ g b } a h i ",
"e j e @ @ @ @ % ; % % k % ; ; & % ; % & % & & % % & @ l m n f d ",
"o e o e o @ % & ; % & p & % ; & % ; % p & % k p @ % & @ q e e o ",
"e o e o @ & & @ % % k r p % % p % % % r p & p r k @ @ s f e e e ",
"o j o e @ & @ t & % p r r & % r & % & r p k k p k & @ d e o o e ",
"o j e e e @ u t v & v w w w & w & & & & % & & r p & & @ j o e e ",
"e o o e o e o t v v w x x x w w % & & & % % & r p p & @ e e e e ",
"e o e e o e o t v w w y z A w w % % v w % % % r r p @ @ e B e o ",
"e e B e e B e t v w w C z D w w % v E w % % % r r p @ @ B u e e ",
"o e e B e B e t F w w G G H w w % w E v & % % r r p @ e u e e o ",
"e o e o e e e t E v w I I w w w % v F t & % & r r p @ e o e j e ",
"e o e e e j o e t F v w w w w w v F F & & & & p r p k e e o e e ",
"e e e B e e e o e t E F F v v v F F E & @ & @ p r p k o e e e j ",
"e B u e e o e j e o t t t t t t t J J @ J @ B p r k k o e u e e ",
"B u e e o o e j e j J K y y H H H H y K K J o k k k j e e e B e ",
"u e e e e d d s 5 x L M H H H y K K y K K K J o e o e o o e u e ",
"e o e n N d q d 5 s x O P H y Q R J S J J K J d T n d U j e e o ",
"o e 5 g V e u e B d R O P Q Q Q x W W X J y K J < 5 5 5 e o e e ",
"e Y l Z f g 5 o ` d R  .........x ..+...J H y J d h 6 @.d e o e ",
"d a #.$.%.[ 2 %.&.V R *.=.P Q Q x +.+...J H y K J -.;.%.5 ` >.d ",
"a ,.'.).( !.~.{.].^.x L *./././.x +.+.(.J H y K J _.:.<.5 ^ [.}.",
"~.'.|.~ ~ 1.- + ~ * 2.x L O 3.3.O x x x J H y K J 4.* ' !.* [.[ ",
"5.6..     # +     .   # x x W W X X x {.J H y K J   7.9 9 / 8.:.",
"+ #     .   # . . .     . x ..+...(.x + J H K J     9..     + ~ ",
"#   .       .     9.      x +.+...(.x #   J J   9..     .   #   ",
"      .   . .   .     +   . x x x x .   .   . .     .     . .   "};
