/* XPM */
static char * player1_xpm[] = {
"32 32 131 2",
"  	c #96BC20",
". 	c #90B41F",
"+ 	c #A5C92E",
"@ 	c #8D7026",
"# 	c #88AB1D",
"$ 	c #A0C52D",
"% 	c #C1A23C",
"& 	c #DBCD61",
"* 	c #92B720",
"= 	c #9EC624",
"- 	c #98BE21",
"; 	c #97BE21",
"> 	c #94B921",
", 	c #ECE79B",
"' 	c #9FC624",
") 	c #B1DB34",
"! 	c #A2CA25",
"~ 	c #98BF21",
"{ 	c #97BD20",
"] 	c #91B520",
"^ 	c #96BB24",
"/ 	c #9FC724",
"( 	c #A7CC2F",
"_ 	c #9AC122",
": 	c #AED432",
"< 	c #ADD633",
"[ 	c #ABD429",
"} 	c #A6CF27",
"| 	c #A1C928",
"1 	c #98BD23",
"2 	c #A4CC26",
"3 	c #9EC627",
"4 	c #A5CC2F",
"5 	c #ABD130",
"6 	c #AAD429",
"7 	c #B6DE35",
"8 	c #A7D028",
"9 	c #9FC627",
"0 	c #A2CA26",
"a 	c #9DC423",
"b 	c #99BE26",
"c 	c #A9D229",
"d 	c #ACD432",
"e 	c #ABD52A",
"f 	c #ACD62A",
"g 	c #A5CD2A",
"h 	c #9DC328",
"i 	c #A8D128",
"j 	c #A9D228",
"k 	c #A2CA28",
"l 	c #9FC529",
"m 	c #00268F",
"n 	c #A4CD29",
"o 	c #A5CE2A",
"p 	c #0040C5",
"q 	c #AAD329",
"r 	c #B8E136",
"s 	c #B3DD35",
"t 	c #0060E1",
"u 	c #7A6843",
"v 	c #FDF0C5",
"w 	c #EEDAB3",
"x 	c #A4CD2A",
"y 	c #534721",
"z 	c #D9D9D9",
"A 	c #2E1E22",
"B 	c #D9D9DD",
"C 	c #B9E236",
"D 	c #CA9E73",
"E 	c #F2F2F2",
"F 	c #928A8C",
"G 	c #FFFFFF",
"H 	c #5C2E00",
"I 	c #DDBD9C",
"J 	c #964F00",
"K 	c #767678",
"L 	c #B7B7BB",
"M 	c #A3CC29",
"N 	c #E3B700",
"O 	c #C79D00",
"P 	c #ABD529",
"Q 	c #979799",
"R 	c #444444",
"S 	c #288DCB",
"T 	c #286E9F",
"U 	c #FFD600",
"V 	c #9EC328",
"W 	c #ACD52A",
"X 	c #A9D329",
"Y 	c #9F8781",
"Z 	c #B89D92",
"` 	c #9FC429",
" .	c #8B5E4A",
"..	c #A77E5D",
"+.	c #858587",
"@.	c #A1CA28",
"#.	c #A7D128",
"$.	c #9DC426",
"%.	c #9AC027",
"&.	c #A4CD26",
"*.	c #1A5586",
"=.	c #565657",
"-.	c #AFD733",
";.	c #A2CB26",
">.	c #B3DB34",
",.	c #AED733",
"'.	c #9CC227",
").	c #9EC524",
"!.	c #9AC022",
"~.	c #A6CE27",
"{.	c #77584A",
"].	c #6D6D6E",
"^.	c #B3DC35",
"/.	c #A0C825",
"(.	c #AAD231",
"_.	c #96BB22",
":.	c #9CC325",
"<.	c #A3CB26",
"[.	c #A3CB29",
"}.	c #A4CA2F",
"|.	c #A8CD2F",
"1.	c #FFFC00",
"2.	c #89AC1E",
"3.	c #9BC222",
"4.	c #93B720",
"5.	c #97BD21",
"6.	c #A5CA2E",
"7.	c #99C021",
"8.	c #91B620",
"9.	c #8AAD1E",
"0.	c #9CC323",
"  .     .     +     . . @ @ @ @   #   @ @ @ @   $             . ",
"    . .   .   @ @ @ @ @ @ % & % @ @ @ % & @     . +   +   . .   ",
". . * = - . ; > @ % & & , @ % & & % & & @ @ @ @ @ @     .     . ",
". - ' ) ! ~ > @ @ @ % % & , & % , & & % % , & % @ { ] { ^ / ( - ",
"_ : < [ } | @ % & & & & & & & & & , & & , & % @ @ @ 1 * 2 3 4 5 ",
"6 7 6 6 8 9 0 @ @ % & & , & & & & & & & & & & & & % @ a b c 0 d ",
"e f f g h i @ % & & & , & % & & & & , & & & , & % & % @ | c j k ",
"f l f f l @ % & & % % & % & , & % , , & m & & , & @ @ @ @ n g e ",
"o f o f @ % & @ p m & % p & , & % , & % p % & , % & @ q r f f o ",
"f o f o s @ @ m t p % p t & & & p & & p t m & & @ % % @ g f f f ",
"o l o f f @ % m p m m p t % & % t & % t t p & % u @ % @ f o o f ",
"o l f f @ % % p t % % & % % % % v % v v v w % w u x @ o l o f f ",
"f o o f @ % p p t % & & % % % & v v y y y v w w u l o f f f f f ",
"f o f f @ @ p t t & & & v w & & v v z A B v v w u f o f f C f o ",
"f f C f @ @ p t t & & & v D w & v v E A F v v w u C f f C s f f ",
"o f f C f @ p t t & & % w D v & v v G H H v v I u s C f s f f o ",
"f o f o f @ p t t % & % u I w & v v v J J v w D u o s f o f l f ",
"f o f f f m p t p % % % % I I w v v v v v w I u f f f f f o f f ",
"f f f C f m p t p @ % @ % D I I w w w I I D u f o f f o f f f l ",
"f C s f f m m t p o @ K @ K K u u u u u u u C f f o l o f s f f ",
"C s f f o o m m m l K L L B G G G G B B L K o f o f l f f f C f ",
"s f f f f e e M 6 K L L L B L L B G G G N O y o f o f o o f s f ",
"f o f n P e r e K K L K K Q K R S B G T U y f e V n e W l f f o ",
"o f 6 X x f s K K L B K Y Z Z y S S S T U R e 6 [ 6 6 6 f o f f ",
"f h i ` g X 6 K K B G K  ... .y  . . . .+.R 6 @.e j 7 #.e f o f ",
"e c $.%.&.} K K L B G K  .....y S S T *.=.R -.r ;.>.,.&.6 @.'.e ",
"c 9 ).!._ ~.K K L B G K {.....y ].].].=.O y a ^./.(._.:.6 / <.[.",
"/.).}.{ { |.K K L B G K y y y U 1.1.U O y 2.3.2 ).4.* ! ~.* <.} ",
"5.6..     $ K K L B G K   y Y Y Z Z y y     - 7.8.  9.a a ( 0._.",
"+ $     .   $ K K L G K . y {. ... .y +     +       # .     + { ",
"$   .       .   K K K     y {. .....y $   +     # .     .   $   ",
"      .   . .   .     +   . y y y y .   .   . .     .     . .   "};
