/* XPM */
static char * player3_xpm[] = {
"32 32 93 2",
"  	c #96BC20",
". 	c #90B41F",
"+ 	c #A5C92E",
"@ 	c #8D7026",
"# 	c #88AB1D",
"$ 	c #A0C52D",
"% 	c #C1A23C",
"& 	c #DBCD61",
"* 	c #ECE79B",
"= 	c #92B720",
"- 	c #9EC624",
"; 	c #98BE21",
"> 	c #97BE21",
", 	c #94B921",
"' 	c #9FC624",
") 	c #B1DB34",
"! 	c #A2CA25",
"~ 	c #98BF21",
"{ 	c #97BD20",
"] 	c #91B520",
"^ 	c #96BB24",
"/ 	c #9FC724",
"( 	c #A7CC2F",
"_ 	c #9AC122",
": 	c #AED432",
"< 	c #ADD633",
"[ 	c #ABD429",
"} 	c #A6CF27",
"| 	c #98BD23",
"1 	c #A4CC26",
"2 	c #9EC627",
"3 	c #A5CC2F",
"4 	c #ABD130",
"5 	c #AAD429",
"6 	c #B6DE35",
"7 	c #A7D028",
"8 	c #9FC627",
"9 	c #9DC423",
"0 	c #99BE26",
"a 	c #A9D229",
"b 	c #A2CA26",
"c 	c #ACD432",
"d 	c #ABD52A",
"e 	c #ACD62A",
"f 	c #A5CD2A",
"g 	c #9DC328",
"h 	c #A1C928",
"i 	c #A9D228",
"j 	c #A2CA28",
"k 	c #9FC529",
"l 	c #A4CD29",
"m 	c #A5CE2A",
"n 	c #AAD329",
"o 	c #B8E136",
"p 	c #00268F",
"q 	c #0040C5",
"r 	c #0060E1",
"s 	c #B9E236",
"t 	c #B3DD35",
"u 	c #444444",
"v 	c #767678",
"w 	c #979799",
"x 	c #B7B7BB",
"y 	c #D9D9DD",
"z 	c #323234",
"A 	c #FFFFFF",
"B 	c #ABD529",
"C 	c #534721",
"D 	c #9F8781",
"E 	c #ACD52A",
"F 	c #A9D329",
"G 	c #A4CD2A",
"H 	c #8B5E4A",
"I 	c #A8D128",
"J 	c #9FC429",
"K 	c #9DC426",
"L 	c #9AC027",
"M 	c #A4CD26",
"N 	c #A1CA28",
"O 	c #9CC227",
"P 	c #9EC524",
"Q 	c #9AC022",
"R 	c #A6CE27",
"S 	c #9CC325",
"T 	c #A3CB26",
"U 	c #A3CB29",
"V 	c #A0C825",
"W 	c #A4CA2F",
"X 	c #A8CD2F",
"Y 	c #97BD21",
"Z 	c #A5CA2E",
"` 	c #9CC323",
" .	c #96BB22",
"  .     .     +     . . @ @ @ @   #   @ @ @ @   $             . ",
"    . .   .   @ @ @ @ @ @ % & * @ @ @ % & @     . +   +   . .   ",
". . = - ; . > , @ @ % & & @ % & * % * & % @ @ @ @ @     .     . ",
". ; ' ) ! ~ @ @ @ % & & * & & % & & & % @ % & % @ { ] { ^ / ( ; ",
"_ : < [ } @ % & & & @ % & * & & & & & * * & % @ @ @ | = 1 2 3 4 ",
"5 6 5 5 7 8 @ @ % & & & & & & & % % & & & * & & & % @ 9 0 a b c ",
"d e e f g @ % & & % & & & * & & & & % & & & & & % @ % @ h a i j ",
"e k e e @ % & & % * & & * * & & * & & * & & & * & % @ @ @ l f d ",
"m e m @ % & @ % * & % & * & & & * * % & * & & & * & @ n o e e m ",
"e m e m @ @ % % & & % & & & % & * & % & * % & % & & % @ f e e e ",
"m k m e e @ & % & % % & & % % % & & % & & % & & % & & @ e m m e ",
"m k e e @ & % % % p % & % p q q & & p % & % & & p % % & @ m e e ",
"e m m e @ % @ % p p % % p q p r & % p p % p % & p % @ @ @ e e e ",
"e m e e @ @ @ % % p p % q r p r % q p q p p p % % % @ e @ s e m ",
"e e s e @ s @ % % % % p q q q p q p q q q p % % % % @ e s t e e ",
"m e e s e s @ % % @ % % % q r q % q r q % % % @ % % @ e t e e m ",
"e m e m e e @ % @ @ % % % q r r % r r q % % % @ @ % @ e m e k e ",
"e m e e e k m @ u @ % % % q r r % r r q % % % @ u @ e e e m e e ",
"e e e s e e e u v v @ % @ r r r @ r r r @ % @ v v u e m e e e k ",
"e s t e e m u w x v x @ x r r r x r r r x @ x v x w u m e t e e ",
"s t e e m m u v v x y x x r r r y r r r x x y x v v u e e e s e ",
"t e e e e d z u v x y x y r r r A r r y y x y x v u z m m e t e ",
"e m e l B d C D v x y x y A r r A r r A y x y x v D C E k e e m ",
"m e 5 F G C H v x y A y A A A A A A A A A y A y x v H C e m e e ",
"e g I J f C H v x y A A A A A A A A A A A A A y x v H C d e m e ",
"d a K L M C H v x A A y A A A A A A A A A y A A x v H C 5 N O d ",
"a 8 P Q _ R v x y A y x A A A A A A A A A x y A y x v S 5 / T U ",
"V P W { { X v x y A y x y A A A A A A A y x y A y x v ! R = T } ",
"Y Z .     $ v x y y x x y A A A A A A A y x x y y x v 9 9 ( `  .",
"+ $     .   $ v v x x v y y A A A A A y y v x x v v # .     + { ",
"$   .       .     v v v v x x x x x x x v v v v # .     .   $   ",
"      .   . .   .     + C C C   .   C C C   . .     .     . .   "};
