/* XPM */
static char * exit_xpm[] = {
"32 32 133 2",
"  	c #96BC20",
". 	c #90B41F",
"+ 	c #A5C92E",
"@ 	c #88AB1D",
"# 	c #A0C52D",
"$ 	c #96BD20",
"% 	c #A7CB2F",
"& 	c #92B720",
"* 	c #9EC624",
"= 	c #98BE21",
"- 	c #97BE21",
"; 	c #94B921",
"> 	c #99C022",
", 	c #A1C825",
"' 	c #97BD21",
") 	c #91B620",
"! 	c #9CC323",
"~ 	c #9FC624",
"{ 	c #B1DB34",
"] 	c #A2CA25",
"^ 	c #98BF21",
"/ 	c #A7D028",
"( 	c #93B723",
"_ 	c #9CC325",
": 	c #97BC25",
"< 	c #9BC222",
"[ 	c #99BF24",
"} 	c #9AC122",
"| 	c #A1C72E",
"1 	c #A9CE30",
"2 	c #9DC426",
"3 	c #A4CC29",
"4 	c #97BD20",
"5 	c #91B520",
"6 	c #96BB24",
"7 	c #9FC724",
"8 	c #A7CC2F",
"9 	c #AED432",
"0 	c #ADD633",
"a 	c #ABD429",
"b 	c #A6CF27",
"c 	c #A1C928",
"d 	c #A1C925",
"e 	c #A9D229",
"f 	c #A5CE27",
"g 	c #ACD62A",
"h 	c #ABD52A",
"i 	c #A1CA25",
"j 	c #9EC524",
"k 	c #A2CB26",
"l 	c #AAD329",
"m 	c #A2C82E",
"n 	c #AAD030",
"o 	c #9FC627",
"p 	c #8CB01F",
"q 	c #98BD23",
"r 	c #A4CC26",
"s 	c #9EC627",
"t 	c #A5CC2F",
"u 	c #ABD130",
"v 	c #AAD429",
"w 	c #B6DE35",
"x 	c #A2CA26",
"y 	c #B0D732",
"z 	c #B8E136",
"A 	c #A9D228",
"B 	c #B3DB34",
"C 	c #A8D228",
"D 	c #A3CB26",
"E 	c #91B522",
"F 	c #A9D329",
"G 	c #A4CD2A",
"H 	c #AED733",
"I 	c #92B622",
"J 	c #9DC423",
"K 	c #99BE26",
"L 	c #ACD432",
"M 	c #A5CD2A",
"N 	c #9DC328",
"O 	c #A8D128",
"P 	c #B1DA34",
"Q 	c #B8E035",
"R 	c #9EC429",
"S 	c #ABD529",
"T 	c #A3CB29",
"U 	c #9AC027",
"V 	c #A4CD26",
"W 	c #A2CA28",
"X 	c #9FC727",
"Y 	c #A0C824",
"Z 	c #9FC529",
"` 	c #A4CD29",
" .	c #B3DD35",
"..	c #A5CE2A",
"+.	c #B9E136",
"@.	c #ACD52A",
"#.	c #14182E",
"$.	c #B9E236",
"%.	c #8F4D57",
"&.	c #B7E035",
"*.	c #A3CC29",
"=.	c #FFAE70",
"-.	c #BD6A62",
";.	c #52333F",
">.	c #A3A7C2",
",.	c #DFE0E8",
"'.	c #9EC328",
").	c #9FC429",
"!.	c #A1CA28",
"~.	c #9EC428",
"{.	c #A7D128",
"].	c #96BB22",
"^.	c #9CC227",
"/.	c #AFD733",
"(.	c #9AC022",
"_.	c #A6CE27",
":.	c #A0C825",
"<.	c #97BD23",
"[.	c #B0D733",
"}.	c #9CC423",
"|.	c #9EC523",
"1.	c #99C021",
"2.	c #B3DC35",
"3.	c #AAD231",
"4.	c #A4CA2F",
"5.	c #A8CD2F",
"6.	c #A3C92E",
"7.	c #A8CC2F",
"8.	c #9DC526",
"9.	c #89AC1E",
"0.	c #93B720",
"a.	c #A5CA2E",
"b.	c #8AAD1E",
"  .     .     +     . .     .     @   .         #             . ",
"    . .   .     # $ %           .     .   @     . +   +   . .   ",
". . & * = . - ; = > , @ ' .   +     .     ) ! - .       .     . ",
". = ~ { ] ^ ; / ( * _ : < [ } |   . 1 2   ! 3 * 4 4 5 4 6 7 8 = ",
"} 9 0 a b c d b e f 2 g ~ h i j ; = k l m n b o } p q & r s t u ",
"v w v v / o x y z A / v B v C / D E F G d H b w 7 I c J K e x L ",
"h g g M N O o b P Q v z v R G S T U G v b V P W X Y F x c e A W ",
"g Z g g Z G S ` h  ...+.G Z g ..g h ` ` a b @.F S s C O l ` M h ",
"..g ..g ..g g ........g g ..#.#.#.#.g g Z 3 h T v P C l z g g ..",
"g ..g .. .$.g g g #.#.#.#.#.#.%.%.#.#.#.#.#.#.l l v &.*.M g g g ",
"..Z ..g g  .$.g #.=.=.=.=.=.=.=.=.=.=.=.=.=.=.#.v l v h g ....g ",
"..Z g g g g  .$.#.-.-.-.-.-.-.-.-.-.-.-.-.-.-.#.h G @...Z ..g g ",
"g ....g ..g ..g #.-.%.%.%.%.%.%.%.%.%.%.%.%.-.#...Z ..g g g g g ",
"g ..g g ..g ..Z #.-.%.%.%.%.%.%.%.%.%.%.%.%.-.#.g g ..g g $.g ..",
"g g $.g g $.g Z #.-.%.%.%.%.%.%.%.%.%.%.%.%.-.#. .$.g g $. .g g ",
"..g g $.g $.g g #.-.%.%.%.%.%.%.%.%.%.%.%.%.-.#.g  .$.g  .g g ..",
"g ..g ..g g g ..#.-.%.%.%.%.%.%.%.%.%.%.%.%.-.#.g .. .g ..g Z g ",
"g ..g g g Z ..g #.-.%.%.%.%.%.%.%.%.%.%.%.%.-.#.g g g g g ..g g ",
"g g g $.g g g ..#.-.-.-.-.-.-.-.-.-.-.-.-.-.-.#...g g ..g g g Z ",
"g $. .g g ..g Z g #.#.#.#.#.#.;.;.#.#.#.#.#.#.g g ..Z ..g  .g g ",
"$. .g g ....g Z g Z ..g g g #.%.%.#.g  ...$...g ..g Z g g g $.g ",
" .g g g g h h *.v S @...g #.>.%.%.>.#...g g g ..g ..g ....g  .g ",
"g ..g ` S h z h v *.h g g #.,.,.,.,.#.g g ..g h '.` h @.Z g g ..",
"..g v F G g  .g $.h ..@.g #.>.>.>.>.#.` @.g h v a v v v g ..g g ",
"g N O ).M F v ..!.h h ~.G C b O ] S h C a z v !.h A w {.h g ..g ",
"h e 2 U V b s V k G F / b o / J ].^.3 / h A /.z k B H V v !.^.h ",
"e o j (.} _.:.< <.f [.}.< |.V 1.5 ! i / *.].J 2.:.3.]._ v 7 D T ",
":.j 4.4 4 5.= + 4 & 6.5.4 - 7.$ 4 = (.8.(.9.< r j 0.& ] _.& D b ",
"' a..     # +     .   #   + . .   +   <     = 1.)   b.J J 8 ! ].",
"+ #     .   # . . .     .     @     # +     +       @ .     + 4 ",
"#   .       .     @         .   .     #   +     @ .     .   #   ",
"      .   . .   .     +   . .   .   .   .   . .     .     . .   "};
