/* XPM */
static char * player_xpm[] = {
"32 32 117 2",
"  	c #96BC20",
". 	c #90B41F",
"+ 	c #A5C92E",
"@ 	c #88AB1D",
"# 	c #A0C52D",
"$ 	c #96BD20",
"% 	c #8D7026",
"& 	c #92B720",
"* 	c #9EC624",
"= 	c #98BE21",
"- 	c #97BE21",
"; 	c #94B921",
"> 	c #99C022",
", 	c #A1C825",
"' 	c #DBCD61",
") 	c #C1A23C",
"! 	c #ECE79B",
"~ 	c #9FC624",
"{ 	c #B1DB34",
"] 	c #A2CA25",
"^ 	c #98BF21",
"/ 	c #97BD20",
"( 	c #91B520",
"_ 	c #96BB24",
": 	c #9FC724",
"< 	c #A7CC2F",
"[ 	c #9AC122",
"} 	c #AED432",
"| 	c #ADD633",
"1 	c #ABD429",
"2 	c #A6CF27",
"3 	c #A1C928",
"4 	c #A1C925",
"5 	c #A4CC26",
"6 	c #9EC627",
"7 	c #A5CC2F",
"8 	c #ABD130",
"9 	c #AAD429",
"0 	c #B6DE35",
"a 	c #A7D028",
"b 	c #9FC627",
"c 	c #A2CA26",
"d 	c #99BE26",
"e 	c #A9D229",
"f 	c #ACD432",
"g 	c #ABD52A",
"h 	c #ACD62A",
"i 	c #A5CD2A",
"j 	c #9DC328",
"k 	c #A8D128",
"l 	c #A9D228",
"m 	c #A2CA28",
"n 	c #9FC529",
"o 	c #AAD329",
"p 	c #A4CD29",
"q 	c #A5CE2A",
"r 	c #00268F",
"s 	c #B3DD35",
"t 	c #B9E236",
"u 	c #0040C5",
"v 	c #0060E1",
"w 	c #EEDAB3",
"x 	c #FDF0C5",
"y 	c #7A6843",
"z 	c #534721",
"A 	c #DDBD9C",
"B 	c #D9D9D9",
"C 	c #2E1E22",
"D 	c #D9D9DD",
"E 	c #CA9E73",
"F 	c #F2F2F2",
"G 	c #928A8C",
"H 	c #FFFFFF",
"I 	c #5C2E00",
"J 	c #964F00",
"K 	c #444444",
"L 	c #767678",
"M 	c #B7B7BB",
"N 	c #979799",
"O 	c #858587",
"P 	c #ABD529",
"Q 	c #8B5E4A",
"R 	c #565657",
"S 	c #323234",
"T 	c #1A5586",
"U 	c #E3B700",
"V 	c #C79D00",
"W 	c #6D6D6E",
"X 	c #ACD52A",
"Y 	c #A9D329",
"Z 	c #A4CD2A",
"` 	c #286E9F",
" .	c #288DCB",
"..	c #FFFC00",
"+.	c #B89D92",
"@.	c #9F8781",
"#.	c #9FC429",
"$.	c #77584A",
"%.	c #FFD600",
"&.	c #A77E5D",
"*.	c #A7D128",
"=.	c #9DC426",
"-.	c #A4CD26",
";.	c #A1CA28",
">.	c #9CC227",
",.	c #9EC524",
"'.	c #9CC325",
").	c #A3CB26",
"!.	c #A3CB29",
"~.	c #A0C825",
"{.	c #A4CA2F",
"].	c #A6CE27",
"^.	c #97BD21",
"/.	c #A5CA2E",
"(.	c #9DC423",
"_.	c #9CC323",
":.	c #96BB22",
"  .     .     +     . .     .     @   .         #             . ",
"    . .   .     # $ % % % %     . % % % % @     . +   +   . .   ",
". . & * = . - ; = > , % ' ) % % % ! ' ) % % % % % %     .     . ",
". = ~ { ] ^ ; % % % % % ) ' ' ) ! ' ) % ' ' ) % % / ( / _ : < = ",
"[ } | 1 2 3 4 2 % ) ' ) % ) ! ' ' ) ' ' ! ' ' ) % % % & 5 6 7 8 ",
"9 0 9 9 a b c % % % ) ' ' ' ' ! ' ' ' ! ' ) % ! ' ' ) % d e c f ",
"g h h i j k % ) ' ' ' ! ! ' ' ' ' ' ' ' ' ' ! ' ) % % c 3 e l m ",
"h n h h n % ) % ) ' ' ' ' ' ' ' ! ' ' ! ' ' ' ) ' ' ) % o p i g ",
"q h q h % % % ) ' ! ' ' ' ! ' ! ! ' r ) ! ' ' ' ) ' ' ) % h h q ",
"h q h q s t % ' ! ' ' ' ! ' ) ! ' ) u r ' ' r ! ' ) % ' ) % h h ",
"q n q h h % ) ' ' ) ' ) ' ' r ' ' u v u ) ' r ' ! ) ) % % q q h ",
"q n h h h % ' ' ) ' ' r ' ) u ' ) v v v u ' r ) ' ) ' % n q h h ",
"h q q h % ' ) ) ' ' ) w ) x x ) x x x x w ) w ) ' ) ) ' % h h h ",
"h q h h % % y ) ' ) w z z z x x x x x z z z w A ) A % ) % t h q ",
"h h t h % t y ) ' ) w B C D x x x x x D C B w A ) A y % % s h h ",
"q h h t h t % y ) E w F C G x x x x x G C F w E ) y % h % h h q ",
"h q h q h h % ) ) E w H I I x x x x x I I H w E ) ) % h q h n h ",
"h q h h h n % ) % y A w J J x x x x x J J w A y % ) % h h q h h ",
"h h h t h h h K L L y A w x x x x x x x w A y L L K h q h h h n ",
"h t s h h q K L L M M y E A w w w w w A E y M M L L K q h s h h ",
"t s h h q q K N D M D M y y y y y y y y y M D D D M K h h h t h ",
"s h h h h g K L N N O D H H D M L M D H H D O D M N K q q h s h ",
"h q h p P z Q K R R S T D H H U V U H H D T S W W W S X n h h q ",
"q h 9 Y Z z Q Q z S S T ` H  . ... . .H ` T S W +.@.z 9 h q h h ",
"h j k #.L M z z L L S $.T `  . .%. . .` T $.z +.&.&.z *.g h q h ",
"g e =.L M M M L L S K T $.Q Q O O O Q Q $.T z &.&.&.z -.9 ;.>.g ",
"e b ,.L M D M L L S K R `  . .W ..W  . .` R z Q &.$.z '.9 : ).!.",
"~.,.{.L M D L L L z V R W W W ..R ..W R R R V z z z L ] ].& ).2 ",
"^./..   L M L L L L z %.%.....K K K %.%.V V z H H H L (.(.< _.:.",
"+ #     . L # . . . L $.@.+.@.z L z Q Q Q z L H H H L .     + / ",
"#   .       .     @   z Q &.&.$..   z z z + L L H L     .   #   ",
"      .   . .   .     z &.&.&.$..   .   .   . . L   .     . .   "};
